<svg xmlns:xlink="http://www.w3.org/1999/xlink" xmlns="http://www.w3.org/2000/svg" width="900" height="550"><g transform="translate(280, 120)"><g transform="translate(0, 360)" fill="none" font-size="12px" font-family="Inter" text-anchor="middle"><path class="domain" stroke="#000000" d="M0.5,6V0.5H590.5V6" fill="none"></path><g class="tick" opacity="1" transform="translate(0.5,0)" fill="none"><line stroke="#000000" y2="6" fill="none"></line><text fill="currentColor" y="9" dy="0.71em">0%</text></g><g class="tick" opacity="1" transform="translate(84.78571428571428,0)" fill="none"><line stroke="#000000" y2="6" fill="none"></line><text fill="currentColor" y="9" dy="0.71em">10%</text></g><g class="tick" opacity="1" transform="translate(169.07142857142856,0)" fill="none"><line stroke="#000000" y2="6" fill="none"></line><text fill="currentColor" y="9" dy="0.71em">20%</text></g><g class="tick" opacity="1" transform="translate(253.35714285714283,0)" fill="none"><line stroke="#000000" y2="6" fill="none"></line><text fill="currentColor" y="9" dy="0.71em">30%</text></g><g class="tick" opacity="1" transform="translate(337.6428571428571,0)" fill="none"><line stroke="#000000" y2="6" fill="none"></line><text fill="currentColor" y="9" dy="0.71em">40%</text></g><g class="tick" opacity="1" transform="translate(421.92857142857144,0)" fill="none"><line stroke="#000000" y2="6" fill="none"></line><text fill="currentColor" y="9" dy="0.71em">50%</text></g><g class="tick" opacity="1" transform="translate(506.21428571428567,0)" fill="none"><line stroke="#000000" y2="6" fill="none"></line><text fill="currentColor" y="9" dy="0.71em">60%</text></g><g class="tick" opacity="1" transform="translate(590.5,0)" fill="none"><line stroke="#000000" y2="6" fill="none"></line><text fill="currentColor" y="9" dy="0.71em">70%</text></g></g><g fill="none" font-size="12px" font-family="Inter" text-anchor="end"><path class="domain" stroke="#000000" d="M-6,0.5H0.5V360.5H-6" fill="none"></path><g class="tick" opacity="1" transform="translate(0,24.5)" fill="none"><line stroke="#000000" x2="-6" fill="none"></line><text fill="currentColor" x="-9" dy="0.32em">Doing more exercise or improving fitness</text></g><g class="tick" opacity="1" transform="translate(0,48.5)" fill="none"><line stroke="#000000" x2="-6" fill="none"></line><text fill="currentColor" x="-9" dy="0.32em">Saving more money</text></g><g class="tick" opacity="1" transform="translate(0,72.5)" fill="none"><line stroke="#000000" x2="-6" fill="none"></line><text fill="currentColor" x="-9" dy="0.32em">Losing weight</text></g><g class="tick" opacity="1" transform="translate(0,96.5)" fill="none"><line stroke="#000000" x2="-6" fill="none"></line><text fill="currentColor" x="-9" dy="0.32em">Improving my diet</text></g><g class="tick" opacity="1" transform="translate(0,120.5)" fill="none"><line stroke="#000000" x2="-6" fill="none"></line><text fill="currentColor" x="-9" dy="0.32em">Spending less time on social media</text></g><g class="tick" opacity="1" transform="translate(0,144.5)" fill="none"><line stroke="#000000" x2="-6" fill="none"></line><text fill="currentColor" x="-9" dy="0.32em">Pursuing a career ambition</text></g><g class="tick" opacity="1" transform="translate(0,168.5)" fill="none"><line stroke="#000000" x2="-6" fill="none"></line><text fill="currentColor" x="-9" dy="0.32em">Spending more time with my family</text></g><g class="tick" opacity="1" transform="translate(0,192.5)" fill="none"><line stroke="#000000" x2="-6" fill="none"></line><text fill="currentColor" x="-9" dy="0.32em">Taking up a new hobby</text></g><g class="tick" opacity="1" transform="translate(0,216.5)" fill="none"><line stroke="#000000" x2="-6" fill="none"></line><text fill="currentColor" x="-9" dy="0.32em">Something else</text></g><g class="tick" opacity="1" transform="translate(0,240.5)" fill="none"><line stroke="#000000" x2="-6" fill="none"></line><text fill="currentColor" x="-9" dy="0.32em">Decorating or renovating part of my home</text></g><g class="tick" opacity="1" transform="translate(0,264.5)" fill="none"><line stroke="#000000" x2="-6" fill="none"></line><text fill="currentColor" x="-9" dy="0.32em">Volunteering or doing more charity work</text></g><g class="tick" opacity="1" transform="translate(0,288.5)" fill="none"><line stroke="#000000" x2="-6" fill="none"></line><text fill="currentColor" x="-9" dy="0.32em">Cutting down on drinking</text></g><g class="tick" opacity="1" transform="translate(0,312.5)" fill="none"><line stroke="#000000" x2="-6" fill="none"></line><text fill="currentColor" x="-9" dy="0.32em">Giving up smoking</text></g><g class="tick" opacity="1" transform="translate(0,336.5)" fill="none"><line stroke="#000000" x2="-6" fill="none"></line><text fill="currentColor" x="-9" dy="0.32em">Raising money for a charity</text></g></g><line x1="413" x2="514.1428571428571" y1="24" y2="24" stroke="#808080" stroke-width="1px"></line><line x1="362.42857142857144" x2="438.2857142857143" y1="48" y2="48" stroke="#808080" stroke-width="1px"></line><line x1="362.42857142857144" x2="396.1428571428571" y1="72" y2="72" stroke="#808080" stroke-width="1px"></line><line x1="345.5714285714286" x2="362.42857142857144" y1="96" y2="96" stroke="#808080" stroke-width="1px"></line><line x1="177" x2="177" y1="120" y2="120" stroke="#808080" stroke-width="1px"></line><line x1="219.14285714285714" x2="134.85714285714286" y1="144" y2="144" stroke="#808080" stroke-width="1px"></line><line x1="168.57142857142856" x2="177" y1="168" y2="168" stroke="#808080" stroke-width="1px"></line><line x1="177" x2="151.7142857142857" y1="192" y2="192" stroke="#808080" stroke-width="1px"></line><line x1="134.85714285714286" x2="160.14285714285714" y1="216" y2="216" stroke="#808080" stroke-width="1px"></line><line x1="75.85714285714285" x2="151.7142857142857" y1="240" y2="240" stroke="#808080" stroke-width="1px"></line><line x1="151.7142857142857" x2="92.71428571428571" y1="264" y2="264" stroke="#808080" stroke-width="1px"></line><line x1="109.57142857142857" x2="92.71428571428571" y1="288" y2="288" stroke="#808080" stroke-width="1px"></line><line x1="33.714285714285715" x2="67.42857142857143" y1="312" y2="312" stroke="#808080" stroke-width="1px"></line><line x1="84.28571428571428" x2="33.714285714285715" y1="336" y2="336" stroke="#808080" stroke-width="1px"></line><line x1="472" x2="472" y1="29" y2="19" stroke="#000000" stroke-width="1px"></line><line x1="413" x2="413" y1="53" y2="43" stroke="#000000" stroke-width="1px"></line><line x1="379.28571428571433" x2="379.28571428571433" y1="77" y2="67" stroke="#000000" stroke-width="1px"></line><line x1="354" x2="354" y1="101" y2="91" stroke="#000000" stroke-width="1px"></line><line x1="177" x2="177" y1="125" y2="115" stroke="#000000" stroke-width="1px"></line><line x1="168.57142857142856" x2="168.57142857142856" y1="149" y2="139" stroke="#000000" stroke-width="1px"></line><line x1="168.57142857142856" x2="168.57142857142856" y1="173" y2="163" stroke="#000000" stroke-width="1px"></line><line x1="160.14285714285714" x2="160.14285714285714" y1="197" y2="187" stroke="#000000" stroke-width="1px"></line><line x1="151.7142857142857" x2="151.7142857142857" y1="221" y2="211" stroke="#000000" stroke-width="1px"></line><line x1="126.42857142857142" x2="126.42857142857142" y1="245" y2="235" stroke="#000000" stroke-width="1px"></line><line x1="118" x2="118" y1="269" y2="259" stroke="#000000" stroke-width="1px"></line><line x1="101.14285714285714" x2="101.14285714285714" y1="293" y2="283" stroke="#000000" stroke-width="1px"></line><line x1="50.57142857142857" x2="50.57142857142857" y1="317" y2="307" stroke="#000000" stroke-width="1px"></line><line x1="50.57142857142857" x2="50.57142857142857" y1="341" y2="331" stroke="#000000" stroke-width="1px"></line><circle cx="413" cy="24" r="6" style="" fill="#69B3A2"></circle><circle cx="362.42857142857144" cy="48" r="6" style="" fill="#69B3A2"></circle><circle cx="362.42857142857144" cy="72" r="6" style="" fill="#69B3A2"></circle><circle cx="345.5714285714286" cy="96" r="6" style="" fill="#69B3A2"></circle><circle cx="177" cy="120" r="6" style="" fill="#69B3A2"></circle><circle cx="219.14285714285714" cy="144" r="6" style="" fill="#69B3A2"></circle><circle cx="168.57142857142856" cy="168" r="6" style="" fill="#69B3A2"></circle><circle cx="177" cy="192" r="6" style="" fill="#69B3A2"></circle><circle cx="134.85714285714286" cy="216" r="6" style="" fill="#69B3A2"></circle><circle cx="75.85714285714285" cy="240" r="6" style="" fill="#69B3A2"></circle><circle cx="151.7142857142857" cy="264" r="6" style="" fill="#69B3A2"></circle><circle cx="109.57142857142857" cy="288" r="6" style="" fill="#69B3A2"></circle><circle cx="33.714285714285715" cy="312" r="6" style="" fill="#69B3A2"></circle><circle cx="84.28571428571428" cy="336" r="6" style="" fill="#69B3A2"></circle><circle cx="514.1428571428571" cy="24" r="6" style="" fill="#4C4082"></circle><circle cx="438.2857142857143" cy="48" r="6" style="" fill="#4C4082"></circle><circle cx="396.1428571428571" cy="72" r="6" style="" fill="#4C4082"></circle><circle cx="362.42857142857144" cy="96" r="6" style="" fill="#4C4082"></circle><circle cx="177" cy="120" r="6" style="" fill="#4C4082"></circle><circle cx="134.85714285714286" cy="144" r="6" style="" fill="#4C4082"></circle><circle cx="177" cy="168" r="6" style="" fill="#4C4082"></circle><circle cx="151.7142857142857" cy="192" r="6" style="" fill="#4C4082"></circle><circle cx="160.14285714285714" cy="216" r="6" style="" fill="#4C4082"></circle><circle cx="151.7142857142857" cy="240" r="6" style="" fill="#4C4082"></circle><circle cx="92.71428571428571" cy="264" r="6" style="" fill="#4C4082"></circle><circle cx="92.71428571428571" cy="288" r="6" style="" fill="#4C4082"></circle><circle cx="67.42857142857143" cy="312" r="6" style="" fill="#4C4082"></circle><circle cx="33.714285714285715" cy="336" r="6" style="" fill="#4C4082"></circle><text x="0" y="-80" style="font-size: 18px; font-family: Inter;" font-weight="600">Health and fitness top the list of new years resolutions in Britain</text><text x="0" y="-50" style="font-size: 16px; font-family: Inter;" font-weight="400">New years resolutions for 2024 of Britons by gender (%)</text><text x="0" y="420" text-anchor="center" style="font-size: 12px; font-family: Inter;" font-weight="500">Source: <tspan font-weight="300">YouGov #MakeoverMonday | <tspan font-weight="500">Design: <tspan font-weight="300">Lisa Hornung </tspan></tspan></tspan></text><g transform="translate(20,-20)"><circle x="0" y="0" r="6" style="" fill="#4C4082"></circle><text x="10" y="5" font-family="Inter" font-size="12px" font-weight="400">Female</text></g><g transform="translate(106,-20)"><circle x="0" y="0" r="6" style="" fill="#69B3A2"></circle><text x="10" y="5" font-family="Inter" font-size="12px" font-weight="400">Male</text></g></g></svg>